<?xml version="1.0" standalone="no"?>
<!DOCTYPE svg PUBLIC "-//W3C//DTD SVG 20010904//EN"
 "http://www.w3.org/TR/2001/REC-SVG-20010904/DTD/svg10.dtd">
<svg version="1.0" xmlns="http://www.w3.org/2000/svg"
 width="176.000000pt" height="176.000000pt" viewBox="0 0 176.000000 176.000000"
 preserveAspectRatio="xMidYMid meet">

<g transform="translate(0.000000,176.000000) scale(0.100000,-0.100000)"
fill="#000000" stroke="none">
<path d="M753 1487 c-67 -62 -201 -182 -297 -267 l-175 -155 0 -422 -1 -423
250 0 250 0 2 202 3 203 98 3 97 3 0 -206 0 -205 255 0 255 0 0 418 0 418
-300 270 c-164 148 -303 270 -307 271 -4 1 -63 -49 -130 -110z m435 -250 l232
-209 0 -374 0 -374 -185 0 -185 0 -2 208 -3 207 -162 3 -163 2 -2 -207 -3
-208 -185 0 -185 0 -3 370 -2 371 112 99 c62 55 184 164 271 243 l159 143 36
-33 c21 -17 142 -126 270 -241z"/>
</g>
</svg>
