<?xml version="1.0" standalone="no"?>
<!DOCTYPE svg PUBLIC "-//W3C//DTD SVG 20010904//EN"
 "http://www.w3.org/TR/2001/REC-SVG-20010904/DTD/svg10.dtd">
<svg version="1.0" xmlns="http://www.w3.org/2000/svg"
 width="2500.000000pt" height="2500.000000pt" viewBox="0 0 2500.000000 2500.000000"
 preserveAspectRatio="xMidYMid meet">

<g transform="translate(0.000000,2500.000000) scale(0.100000,-0.100000)"
fill="#000000" stroke="none">
<path d="M16275 23209 c-480 -37 -918 -148 -1345 -343 -74 -34 -378 -190 -675
-348 -297 -157 -1069 -566 -1715 -908 -646 -342 -1215 -644 -1265 -670 -49
-26 -619 -328 -1265 -670 -646 -342 -1670 -885 -2275 -1205 -605 -320 -1289
-683 -1520 -805 -473 -250 -621 -336 -797 -462 -833 -594 -1398 -1479 -1582
-2478 -44 -240 -59 -414 -59 -690 -1 -268 8 -387 49 -639 166 -1040 772 -1995
1645 -2591 311 -212 445 -278 1234 -605 341 -142 623 -260 627 -264 6 -6 -230
-132 -1137 -609 -533 -280 -690 -376 -947 -579 -155 -123 -477 -442 -594 -589
-483 -605 -768 -1296 -855 -2074 -17 -150 -17 -630 -1 -780 66 -595 250 -1138
554 -1640 166 -274 338 -490 578 -730 310 -311 625 -538 1013 -732 432 -216
891 -348 1387 -400 154 -16 574 -16 735 1 389 39 783 138 1136 287 177 74 215
94 1094 559 418 221 1307 691 1975 1045 668 353 1366 722 1550 820 388 206
1708 904 2845 1505 435 229 860 454 945 500 85 45 315 167 510 270 195 103
405 218 466 254 520 313 980 768 1300 1288 823 1336 767 3024 -143 4310 -125
177 -241 312 -427 499 -268 268 -523 465 -831 639 -181 103 -288 151 -930 418
-324 135 -608 253 -629 262 l-39 17 89 47 c49 27 206 110 349 186 1302 691
1246 660 1455 803 359 244 706 585 965 947 372 521 609 1141 692 1807 22 178
25 686 5 848 -98 795 -372 1455 -856 2060 -120 150 -401 434 -546 552 -618
501 -1336 799 -2120 878 -150 15 -504 20 -645 9z m679 -1058 c939 -138 1733
-706 2155 -1541 197 -389 294 -768 308 -1210 30 -922 -395 -1812 -1132 -2372
-185 -140 -219 -159 -1220 -688 -429 -227 -896 -473 -1037 -549 l-258 -136 0
-631 0 -630 83 -34 c45 -18 249 -102 452 -185 204 -84 532 -219 730 -300 646
-265 718 -296 845 -362 787 -408 1342 -1163 1499 -2039 63 -354 53 -790 -29
-1139 -158 -680 -568 -1292 -1134 -1694 -153 -108 -284 -180 -1421 -781 -627
-332 -1405 -743 -1730 -915 -772 -408 -2710 -1434 -3370 -1783 -286 -151 -628
-332 -760 -402 -132 -70 -519 -275 -860 -455 -341 -180 -730 -386 -864 -457
-381 -202 -538 -267 -816 -338 -455 -117 -932 -118 -1393 -5 -1071 265 -1888
1106 -2120 2185 -45 207 -56 324 -56 585 -1 260 6 339 50 565 119 616 461
1210 929 1609 251 215 318 256 1040 637 404 213 948 500 1448 765 l177 94 0
630 0 630 -342 139 c-288 117 -1030 423 -1518 626 -1004 417 -1671 1310 -1780
2384 -18 168 -8 533 19 696 138 857 623 1582 1356 2027 55 33 384 210 730 393
347 183 1125 595 1730 915 605 320 1417 750 1805 955 388 205 1047 554 1465
775 819 433 2685 1420 3086 1632 136 72 293 152 350 178 277 127 588 209 930
245 138 14 495 4 653 -19z"/>
<path d="M10030 12800 c0 -1518 2 -2760 4 -2760 2 0 858 453 1902 1006 1045
553 2215 1173 2601 1377 387 205 703 374 703 377 0 3 -316 172 -703 377 -386
204 -1556 824 -2601 1377 -1044 553 -1900 1006 -1902 1006 -2 0 -4 -1242 -4
-2760z"/>
</g>
</svg>
